<?xml version="1.0" standalone="no"?>
<!DOCTYPE svg PUBLIC "-//W3C//DTD SVG 20010904//EN"
 "http://www.w3.org/TR/2001/REC-SVG-20010904/DTD/svg10.dtd">
<svg version="1.0" xmlns="http://www.w3.org/2000/svg"
 width="260.000000pt" height="260.000000pt" viewBox="0 0 260.000000 260.000000"
 preserveAspectRatio="xMidYMid meet">
<metadata>
Created by potrace 1.11, written by Peter Selinger 2001-2013
</metadata>
<g transform="translate(0.000000,260.000000) scale(0.100000,-0.100000)"
fill="#000000" stroke="none">
<path d="M1310 2471 c0 -4 -44 -11 -97 -15 -54 -4 -100 -10 -103 -15 -3 -5
-26 -11 -52 -15 -27 -4 -48 -11 -48 -16 0 -6 -18 -13 -39 -16 -22 -4 -42 -13
-45 -20 -3 -8 -12 -14 -21 -14 -8 0 -15 -4 -15 -10 0 -5 -11 -12 -25 -16 -14
-3 -25 -12 -25 -19 0 -8 -8 -21 -17 -31 -14 -14 -18 -35 -18 -98 0 -66 -4 -85
-20 -103 -11 -13 -25 -23 -32 -23 -21 0 -15 -58 7 -77 11 -10 20 -22 20 -27 0
-5 11 -19 24 -31 13 -12 27 -32 31 -43 3 -12 11 -22 16 -22 5 0 9 -7 9 -15 0
-9 7 -18 15 -21 8 -3 17 -15 21 -26 3 -12 17 -31 30 -43 13 -12 24 -26 24 -31
0 -5 9 -17 20 -27 11 -9 20 -23 20 -31 0 -8 7 -16 15 -20 8 -3 15 -11 15 -17
0 -6 11 -22 25 -35 14 -13 25 -28 25 -33 0 -6 10 -20 23 -31 20 -19 20 -23 6
-33 -9 -7 -19 -22 -23 -35 -4 -12 -12 -22 -17 -22 -5 0 -9 -7 -9 -15 0 -9 -7
-18 -15 -21 -8 -4 -15 -12 -15 -20 0 -8 -9 -22 -20 -31 -11 -10 -20 -23 -20
-30 0 -7 -4 -13 -9 -13 -5 0 -13 -10 -16 -22 -4 -11 -17 -31 -29 -42 -13 -12
-25 -29 -29 -38 -3 -10 -11 -18 -16 -18 -5 0 -12 -11 -15 -25 -4 -14 -11 -25
-16 -25 -6 0 -10 -6 -10 -13 0 -7 -9 -20 -20 -30 -11 -9 -20 -23 -20 -31 0 -8
-7 -16 -15 -20 -8 -3 -15 -12 -15 -21 0 -8 -4 -15 -9 -15 -5 0 -13 -10 -16
-22 -4 -11 -17 -31 -29 -42 -13 -12 -25 -29 -29 -39 -3 -9 -11 -17 -16 -17 -5
0 -12 -11 -15 -25 -4 -14 -11 -25 -16 -25 -6 0 -10 -6 -10 -13 0 -7 -9 -20
-20 -30 -11 -9 -20 -24 -20 -32 0 -8 -5 -15 -10 -15 -6 0 -14 -8 -17 -17 -4
-10 -16 -27 -29 -39 -12 -11 -25 -31 -29 -42 -3 -12 -11 -22 -16 -22 -5 0 -9
-7 -9 -15 0 -9 -7 -18 -15 -21 -8 -4 -15 -12 -15 -20 0 -8 -9 -22 -20 -31 -11
-10 -20 -23 -20 -30 0 -7 -4 -13 -10 -13 -5 0 -12 -11 -16 -24 -3 -14 -12 -27
-20 -30 -8 -3 -14 -11 -14 -17 0 -6 -11 -22 -25 -35 -14 -13 -25 -26 -25 -29
0 -9 27 -35 36 -35 4 0 22 -16 41 -35 19 -19 39 -35 46 -35 7 -1 23 -14 37
-30 31 -38 65 -40 74 -4 4 14 18 36 31 48 14 13 25 29 25 35 0 6 6 14 14 17 8
3 17 16 20 30 4 13 11 24 16 24 6 0 10 6 10 13 0 7 9 20 20 30 11 9 20 23 20
31 0 8 7 16 15 20 8 3 15 11 15 17 0 6 11 22 24 34 13 12 27 32 31 43 3 12 11
22 16 22 5 0 9 6 9 13 0 7 9 20 20 30 11 9 20 24 20 32 0 8 5 15 10 15 6 0 14
8 17 18 4 9 16 26 29 38 12 11 25 31 29 42 3 12 11 22 16 22 5 0 9 6 9 13 0 7
9 20 20 30 11 9 20 23 20 31 0 8 7 16 15 20 8 3 15 12 15 21 0 8 4 15 9 15 5
0 13 10 16 22 4 11 17 31 29 42 13 12 25 29 29 39 3 9 11 17 17 17 5 0 10 7
10 15 0 8 9 23 20 32 11 10 20 23 20 30 0 7 4 13 9 13 5 0 13 10 16 22 4 11
18 31 31 43 13 12 24 26 24 31 0 5 8 16 18 25 16 13 19 13 35 -1 9 -9 17 -20
17 -25 0 -4 11 -18 25 -31 14 -13 25 -27 25 -33 0 -5 13 -22 28 -38 16 -15 31
-36 35 -45 3 -10 11 -18 16 -18 5 0 13 -10 16 -22 4 -11 17 -31 29 -42 13 -12
25 -29 29 -38 3 -10 11 -18 16 -18 5 0 13 -10 17 -22 4 -12 20 -33 35 -47 16
-14 29 -30 29 -35 0 -5 11 -19 24 -31 13 -12 27 -32 31 -43 3 -12 11 -22 16
-22 5 0 13 -8 16 -18 4 -9 16 -26 29 -38 12 -11 25 -30 28 -42 4 -11 13 -23
21 -26 8 -3 15 -10 15 -16 0 -7 14 -25 30 -42 17 -16 30 -34 30 -39 0 -6 11
-20 25 -33 14 -13 25 -29 25 -35 0 -6 7 -14 15 -17 8 -3 17 -15 21 -26 3 -12
17 -31 30 -43 13 -12 24 -26 24 -31 0 -5 13 -21 29 -35 15 -14 31 -34 35 -46
4 -12 13 -24 21 -27 8 -3 15 -12 15 -21 0 -20 49 -20 56 0 3 8 15 17 26 21 12
3 31 17 43 30 12 13 26 24 31 24 5 0 17 9 27 20 9 11 24 20 32 20 24 0 18 38
-10 64 -14 13 -25 29 -25 35 0 6 -7 14 -15 17 -8 3 -17 15 -21 26 -3 12 -17
31 -30 43 -13 12 -24 28 -24 34 0 6 -7 14 -15 17 -8 3 -17 15 -21 26 -3 12
-16 31 -28 42 -13 12 -25 29 -29 39 -3 9 -11 17 -16 17 -5 0 -13 10 -16 22 -4
11 -17 31 -29 42 -13 12 -25 29 -29 39 -3 9 -11 17 -16 17 -5 0 -13 10 -16 22
-4 11 -17 31 -29 42 -13 12 -25 29 -29 39 -3 9 -11 17 -16 17 -5 0 -13 10 -16
22 -4 11 -17 31 -29 42 -13 12 -25 29 -29 39 -3 9 -11 17 -16 17 -5 0 -13 10
-16 22 -4 11 -17 31 -29 42 -13 12 -25 29 -29 39 -3 9 -11 17 -16 17 -5 0 -13
10 -16 22 -4 11 -17 31 -29 42 -13 12 -25 29 -29 39 -3 9 -11 17 -16 17 -5 0
-13 10 -16 22 -4 11 -17 31 -29 42 -13 12 -25 29 -29 39 -3 9 -11 17 -16 17
-5 0 -13 10 -16 22 -4 11 -17 31 -30 42 -35 33 -41 64 -16 87 12 11 21 26 21
33 0 8 7 16 15 20 8 3 15 11 15 17 0 6 11 22 24 34 13 12 27 32 31 43 3 12 11
22 16 22 5 0 9 6 9 13 0 7 9 20 20 30 11 9 20 23 20 31 0 8 7 16 15 20 8 3 15
11 15 17 0 6 11 22 24 34 13 12 27 32 31 43 3 12 10 22 15 22 5 0 11 14 15 30
4 17 11 30 16 30 28 0 -13 53 -50 65 -21 6 -29 25 -11 25 6 0 10 6 10 13 0 7
9 20 20 30 11 9 20 23 20 31 0 8 6 16 13 19 8 2 12 29 12 83 0 76 -2 82 -29
107 -16 15 -35 27 -42 27 -8 0 -14 4 -14 9 0 5 -15 13 -32 16 -18 4 -35 11
-38 16 -3 5 -38 11 -78 15 -40 4 -72 11 -72 15 0 5 -40 9 -90 9 -49 0 -90 -4
-90 -9z m269 -59 c3 -5 27 -12 54 -16 26 -4 47 -11 47 -16 0 -5 11 -12 25 -16
15 -4 28 -16 31 -30 3 -13 10 -24 15 -24 5 0 9 -20 9 -45 0 -25 -4 -45 -9 -45
-5 0 -12 -12 -15 -26 -8 -29 -52 -74 -73 -74 -7 0 -16 6 -19 14 -3 8 -16 17
-30 20 -13 4 -24 11 -24 16 0 5 -9 2 -20 -7 -11 -10 -20 -23 -20 -30 0 -7 -4
-13 -9 -13 -5 0 -13 -10 -16 -22 -4 -11 -17 -31 -29 -42 -13 -12 -25 -29 -29
-38 -3 -10 -11 -18 -16 -18 -5 0 -12 -11 -15 -25 -4 -14 -11 -25 -16 -25 -6 0
-10 -6 -10 -13 0 -7 -9 -20 -20 -30 -11 -9 -20 -23 -20 -31 0 -8 -7 -16 -15
-20 -8 -3 -15 -11 -15 -17 0 -6 -11 -22 -24 -34 -13 -12 -27 -32 -31 -43 -3
-12 -10 -22 -15 -22 -5 0 -12 10 -15 22 -4 11 -18 31 -31 43 -13 12 -24 26
-24 31 0 5 -9 17 -20 27 -11 9 -20 23 -20 31 0 8 -7 16 -15 20 -8 3 -15 11
-15 17 0 6 -11 22 -24 34 -13 12 -27 32 -31 43 -3 12 -11 22 -16 22 -5 0 -13
8 -16 18 -4 9 -16 26 -29 38 -12 11 -25 30 -28 42 -4 11 -13 23 -21 26 -8 3
-15 12 -15 21 0 22 -42 19 -63 -5 -29 -35 -47 -26 -47 25 0 25 5 45 10 45 6 0
10 5 10 11 0 18 63 75 91 84 13 4 27 12 30 17 3 5 23 11 45 15 21 3 42 10 45
15 3 5 31 12 62 15 32 3 57 9 57 14 0 19 377 19 389 1z m-645 -288 c9 -3 16
-12 16 -20 0 -8 9 -22 20 -31 11 -10 20 -22 20 -27 0 -5 11 -19 24 -31 13 -12
27 -32 31 -43 3 -12 11 -22 16 -22 5 0 9 -7 9 -15 0 -9 7 -18 15 -21 8 -3 17
-15 21 -26 3 -12 17 -31 30 -43 13 -12 24 -28 24 -34 0 -6 7 -14 15 -17 8 -3
17 -15 21 -26 3 -12 18 -32 32 -45 14 -12 20 -23 13 -23 -6 0 -11 -7 -11 -15
0 -8 -6 -15 -13 -15 -13 0 -47 34 -47 48 0 4 -9 15 -20 25 -11 9 -20 24 -20
32 0 8 -4 15 -10 15 -5 0 -10 -5 -10 -10 0 -6 -6 -5 -14 2 -10 10 -11 15 -2
21 8 6 8 10 -1 14 -7 2 -13 11 -13 19 0 8 -7 17 -15 20 -8 3 -17 15 -21 26 -3
12 -17 31 -30 43 -13 12 -24 28 -24 34 0 6 -7 14 -15 17 -8 3 -17 15 -21 26
-3 12 -16 31 -29 42 -49 46 -43 100 9 80z m686 -24 c25 -25 25 -28 -4 -55 -13
-12 -27 -32 -31 -43 -3 -12 -11 -22 -16 -22 -5 0 -9 -6 -9 -13 0 -7 -9 -20
-20 -30 -11 -9 -20 -24 -20 -32 0 -8 -5 -15 -10 -15 -6 0 -14 -8 -17 -17 -4
-10 -16 -27 -29 -39 -12 -11 -25 -31 -29 -42 -3 -12 -11 -22 -16 -22 -5 0 -9
-6 -9 -13 0 -7 -9 -20 -20 -30 -11 -9 -20 -23 -20 -31 0 -8 -7 -16 -15 -20 -8
-3 -15 -12 -15 -21 0 -8 -4 -15 -9 -15 -5 0 -13 -10 -16 -22 -4 -11 -18 -31
-31 -43 -13 -12 -24 -28 -24 -34 0 -6 -7 -14 -15 -17 -8 -4 -15 -12 -15 -20 0
-8 -9 -22 -20 -31 -11 -10 -20 -23 -20 -30 0 -7 -4 -13 -9 -13 -5 0 -13 -10
-16 -22 -4 -11 -18 -31 -31 -43 -13 -12 -24 -28 -24 -34 0 -6 -7 -14 -15 -17
-8 -4 -15 -12 -15 -20 0 -8 -9 -22 -20 -31 -11 -10 -20 -23 -20 -30 0 -7 -4
-13 -9 -13 -5 0 -13 -10 -16 -22 -4 -11 -17 -31 -29 -42 -13 -12 -25 -29 -29
-38 -3 -10 -11 -18 -17 -18 -5 0 -10 -7 -10 -15 0 -8 -9 -23 -20 -32 -11 -10
-20 -23 -20 -30 0 -7 -4 -13 -9 -13 -5 0 -13 -10 -16 -22 -4 -11 -17 -31 -29
-42 -13 -12 -25 -29 -29 -38 -3 -10 -11 -18 -17 -18 -5 0 -10 -7 -10 -15 0 -8
-9 -23 -20 -32 -11 -10 -20 -23 -20 -30 0 -7 -4 -13 -10 -13 -5 0 -12 -11 -16
-25 -3 -14 -10 -25 -15 -25 -5 0 -13 -8 -16 -18 -4 -9 -16 -26 -29 -38 -12
-11 -25 -31 -29 -42 -3 -12 -11 -22 -16 -22 -5 0 -9 -6 -9 -13 0 -7 -9 -20
-20 -30 -11 -9 -20 -24 -20 -32 0 -8 -5 -15 -10 -15 -6 0 -14 -8 -17 -18 -4
-9 -16 -26 -29 -38 -12 -11 -25 -31 -29 -42 -3 -12 -11 -22 -16 -22 -5 0 -9
-6 -9 -13 0 -7 -9 -20 -20 -30 -11 -9 -20 -25 -19 -34 0 -14 2 -15 6 -3 3 8
16 24 28 36 13 11 26 31 30 42 3 12 11 22 16 22 5 0 9 6 9 13 0 7 9 20 20 30
11 9 20 24 20 32 0 8 5 15 10 15 6 0 14 8 17 18 4 9 16 26 29 38 12 11 25 31
29 42 3 12 11 22 16 22 5 0 9 6 9 13 0 7 9 20 20 30 11 9 20 23 20 31 0 8 7
16 15 20 8 3 15 12 15 21 0 8 4 15 9 15 5 0 13 10 16 22 4 11 17 31 29 42 13
12 25 29 29 39 3 9 11 17 17 17 5 0 10 7 10 15 0 8 9 23 20 32 11 10 20 23 20
30 0 7 4 13 9 13 5 0 13 10 16 22 4 11 17 31 29 42 13 12 25 29 29 39 3 9 11
17 17 17 5 0 10 7 10 15 0 8 9 23 20 32 11 10 20 23 20 30 0 7 4 13 9 13 5 0
13 10 16 22 4 11 18 31 31 43 13 12 24 28 24 34 0 6 7 14 15 17 8 4 15 12 15
20 0 8 9 22 20 31 11 10 20 23 20 30 0 7 4 13 9 13 5 0 13 10 16 22 4 11 18
31 31 43 13 12 24 28 24 34 0 6 7 14 15 17 8 4 15 12 15 20 0 8 9 22 20 31 11
10 20 23 20 30 0 7 4 13 10 13 5 0 12 11 16 25 3 14 10 25 15 25 5 0 13 8 16
18 4 9 16 26 29 38 12 11 25 31 29 42 3 12 11 22 16 22 5 0 9 6 9 13 0 7 9 20
20 30 11 9 20 24 20 32 0 8 5 15 10 15 6 0 14 8 17 18 4 9 16 26 29 38 12 11
25 31 29 42 3 12 11 22 16 22 5 0 9 6 9 13 0 6 12 23 26 36 l25 24 28 -30 c15
-17 33 -32 40 -34 11 -4 10 -8 -3 -21 -9 -9 -16 -22 -16 -28 0 -6 -7 -13 -15
-16 -8 -4 -15 -12 -15 -20 0 -8 -9 -22 -20 -31 -11 -10 -20 -23 -20 -30 0 -7
-4 -13 -10 -13 -5 0 -12 -11 -16 -25 -3 -14 -10 -25 -15 -25 -5 0 -13 -8 -16
-17 -4 -10 -16 -27 -29 -39 -12 -11 -25 -31 -29 -42 -3 -12 -11 -22 -16 -22
-5 0 -9 -6 -9 -13 0 -7 -9 -20 -20 -30 -11 -9 -20 -23 -20 -31 0 -8 -7 -16
-15 -20 -8 -3 -15 -11 -15 -17 0 -6 -11 -22 -24 -34 -13 -12 -27 -32 -31 -43
-3 -12 -11 -22 -16 -22 -5 0 -9 -6 -9 -13 0 -7 -9 -20 -20 -30 -11 -9 -20 -23
-20 -31 0 -8 -7 -16 -15 -20 -8 -3 -15 -11 -15 -17 0 -6 -11 -22 -24 -34 -13
-12 -27 -32 -31 -43 -3 -12 -11 -22 -16 -22 -5 0 -9 -7 -9 -15 0 -9 -7 -18
-15 -21 -8 -4 -15 -12 -15 -20 0 -8 -9 -22 -20 -31 -11 -10 -20 -23 -20 -30 0
-7 -4 -13 -9 -13 -5 0 -13 -10 -16 -22 -4 -11 -17 -31 -29 -42 -13 -12 -25
-29 -29 -38 -3 -10 -11 -18 -17 -18 -5 0 -10 -7 -10 -15 0 -8 -9 -23 -20 -32
-11 -10 -20 -23 -20 -30 0 -7 -4 -13 -9 -13 -5 0 -13 -10 -16 -22 -4 -11 -17
-31 -29 -42 -13 -12 -25 -29 -29 -38 -3 -10 -11 -18 -17 -18 -5 0 -10 -7 -10
-15 0 -8 -9 -23 -20 -32 -11 -10 -20 -23 -20 -30 0 -7 -4 -13 -10 -13 -5 0
-12 -11 -16 -25 -3 -14 -10 -25 -15 -25 -5 0 -13 -8 -16 -18 -4 -9 -16 -26
-29 -38 -12 -11 -25 -31 -29 -42 -3 -12 -11 -22 -16 -22 -5 0 -9 -6 -9 -13 0
-7 -9 -20 -20 -30 -11 -9 -20 -24 -20 -32 0 -8 -5 -15 -10 -15 -6 0 -14 -8
-17 -18 -4 -9 -16 -26 -29 -38 -12 -11 -25 -31 -29 -42 -3 -12 -11 -22 -16
-22 -5 0 -9 -6 -9 -12 0 -19 -48 -61 -60 -53 -15 9 -2 44 26 70 13 12 24 28
24 34 0 6 7 14 15 17 8 4 15 12 15 20 0 8 9 22 20 31 11 10 20 23 20 30 0 7 4
13 10 13 5 0 12 11 16 25 3 14 10 25 15 25 5 0 13 8 16 17 4 10 16 27 29 39
12 11 25 31 29 42 3 12 11 22 16 22 5 0 9 6 9 13 0 7 9 20 20 30 11 9 20 24
20 32 0 8 5 15 10 15 6 0 14 8 17 18 4 9 16 26 29 38 12 11 25 31 29 42 3 12
11 22 16 22 5 0 9 6 9 13 0 7 9 20 20 30 11 9 20 23 20 31 0 8 7 16 15 20 8 3
15 12 15 21 0 8 4 15 9 15 5 0 13 10 16 22 4 11 17 31 29 42 13 12 25 29 29
39 3 9 11 17 17 17 5 0 10 7 10 15 0 8 9 23 20 32 11 10 20 23 20 30 0 7 4 13
9 13 5 0 13 10 16 22 4 11 18 31 31 43 13 12 24 28 24 34 0 6 6 14 14 17 8 3
17 16 20 30 4 13 11 24 16 24 6 0 10 6 10 13 0 7 9 20 20 30 11 9 20 23 20 31
0 8 7 16 15 20 8 3 15 11 15 17 0 6 11 22 24 34 13 12 27 32 31 43 3 12 11 22
16 22 5 0 9 6 9 13 0 7 9 20 20 30 11 9 20 24 20 32 0 8 5 15 10 15 6 0 14 8
17 18 4 9 13 23 20 30 6 7 10 20 7 30 -5 14 -4 15 5 2 12 -18 23 -9 25 23 0
15 6 23 14 20 6 -3 12 2 12 11 0 9 7 19 15 22 8 4 15 12 15 20 0 8 9 22 20 31
11 10 20 23 20 30 0 7 4 13 9 13 5 0 13 10 16 22 4 11 18 31 31 43 25 23 32
45 14 45 -5 0 -10 -7 -10 -15 0 -8 -9 -23 -20 -32 -11 -10 -20 -23 -20 -30 0
-7 -4 -13 -10 -13 -5 0 -12 -11 -16 -25 -7 -30 -12 -31 -29 -8 -12 16 -15 15
-39 -7 -14 -14 -26 -31 -26 -37 0 -7 -4 -13 -9 -13 -5 0 -13 -10 -16 -22 -4
-11 -18 -31 -31 -43 -28 -26 -30 -40 -8 -49 18 -7 10 -46 -12 -59 -8 -4 -14
-13 -14 -19 0 -6 -11 -21 -24 -33 -13 -12 -27 -32 -31 -43 -3 -12 -11 -22 -16
-22 -5 0 -9 -6 -9 -13 0 -7 -9 -20 -20 -30 -11 -9 -20 -23 -20 -31 0 -8 -7
-16 -15 -20 -8 -3 -15 -11 -15 -17 0 -6 -11 -22 -24 -34 -13 -12 -27 -32 -31
-43 -3 -12 -11 -22 -16 -22 -5 0 -9 -7 -9 -15 0 -9 -7 -18 -15 -21 -8 -4 -15
-12 -15 -20 0 -8 -9 -22 -20 -31 -11 -10 -20 -23 -20 -30 0 -7 -4 -13 -9 -13
-5 0 -13 -10 -16 -22 -4 -11 -17 -31 -29 -42 -13 -12 -25 -29 -29 -38 -3 -10
-11 -18 -17 -18 -5 0 -10 -7 -10 -15 0 -8 -9 -23 -20 -32 -11 -10 -20 -23 -20
-30 0 -7 -4 -13 -10 -13 -5 0 -12 -11 -16 -25 -3 -14 -10 -25 -15 -25 -5 0
-13 -8 -16 -17 -4 -10 -16 -27 -29 -39 -12 -11 -25 -31 -29 -42 -3 -12 -11
-22 -16 -22 -5 0 -9 -6 -9 -13 0 -7 -9 -20 -20 -30 -11 -9 -20 -24 -20 -32 0
-8 -5 -15 -10 -15 -6 0 -14 -8 -17 -18 -4 -9 -16 -26 -29 -38 -12 -11 -25 -31
-29 -42 -3 -12 -11 -22 -16 -22 -5 0 -9 -6 -9 -13 0 -7 -9 -20 -20 -30 -11 -9
-20 -23 -20 -31 0 -8 -7 -16 -15 -20 -8 -3 -15 -12 -15 -21 0 -8 -4 -15 -9
-15 -5 0 -13 -10 -16 -22 -4 -11 -18 -31 -31 -43 -13 -12 -24 -28 -24 -34 0
-6 -7 -14 -15 -17 -8 -4 -15 -12 -15 -20 0 -8 -9 -22 -20 -31 -11 -10 -20 -23
-20 -30 0 -18 -19 -16 -26 2 -4 8 -12 15 -19 15 -19 0 -72 53 -57 58 6 2 12 9
12 16 0 6 9 19 20 29 11 9 20 23 20 31 0 8 7 16 15 20 8 3 15 12 15 21 0 8 4
15 9 15 5 0 13 10 16 22 4 11 18 31 31 43 13 12 24 28 24 34 0 6 7 14 15 17 8
4 15 12 15 20 0 8 9 22 20 31 11 10 20 23 20 30 0 7 4 13 10 13 5 0 12 11 16
25 3 14 10 25 15 25 5 0 13 8 16 18 4 9 16 26 29 38 12 11 25 31 29 42 3 12
11 22 16 22 5 0 9 7 9 15 0 9 7 18 15 21 8 4 15 12 15 20 0 8 9 22 20 31 11
10 20 23 20 30 0 7 4 13 10 13 5 0 12 11 16 25 3 14 10 25 15 25 5 0 13 8 16
18 4 9 16 26 29 38 12 11 25 31 29 42 3 12 11 22 16 22 5 0 9 6 9 13 0 7 9 20
20 30 11 9 20 23 20 31 0 8 7 16 15 20 8 3 15 12 15 21 0 8 4 15 9 15 5 0 13
10 16 22 4 11 18 31 31 43 13 12 24 28 24 34 0 6 6 14 14 17 8 3 17 16 20 30
4 13 11 24 16 24 6 0 10 7 10 15 0 9 7 18 15 21 8 3 17 15 21 26 3 12 16 31
29 42 12 12 26 32 30 45 4 13 18 34 31 46 13 12 24 28 24 34 0 6 7 14 15 17 8
4 15 12 15 20 0 8 9 22 20 31 11 10 20 23 20 30 0 7 4 13 10 13 5 0 12 11 16
25 3 14 10 25 15 25 5 0 13 8 16 18 4 9 16 26 29 38 12 11 25 31 29 42 3 12
11 22 16 22 5 0 9 7 9 15 0 9 7 18 15 21 8 4 15 12 15 18 0 11 39 63 48 65 1
1 11 -8 22 -19z m-730 -25 c0 -8 9 -23 20 -32 11 -10 20 -22 20 -27 0 -5 11
-19 24 -31 13 -12 27 -32 31 -43 3 -12 11 -22 16 -22 5 0 13 -8 16 -17 4 -10
17 -28 31 -41 13 -13 22 -26 19 -29 -8 -7 -57 47 -57 63 0 18 -50 19 -51 2 -2
-25 3 -41 17 -55 8 -8 14 -21 14 -29 0 -15 15 -19 23 -6 2 4 2 2 1 -5 -2 -7 3
-18 9 -25 7 -7 16 -21 20 -30 3 -10 11 -18 16 -18 5 0 13 -10 16 -22 4 -11 18
-31 31 -43 13 -12 24 -28 24 -34 0 -6 7 -14 15 -17 19 -8 20 -50 2 -57 -19 -7
-33 4 -41 31 -4 12 -12 22 -17 22 -5 0 -9 7 -9 15 0 9 -7 18 -15 21 -8 3 -17
15 -21 26 -3 12 -16 31 -28 42 -13 12 -25 29 -29 39 -3 9 -11 17 -16 17 -5 0
-13 10 -16 22 -4 11 -18 31 -31 43 -13 12 -24 28 -24 34 0 6 -7 14 -15 17 -8
4 -15 12 -15 20 0 8 -9 22 -20 31 -11 10 -20 22 -20 27 0 5 -11 19 -26 32
l-25 24 27 25 c15 14 33 25 40 25 8 0 14 5 14 10 0 6 7 10 15 10 8 0 15 -7 15
-15z m191 -336 c11 -11 18 -23 16 -26 -5 -5 -47 33 -47 42 0 10 10 5 31 -16z
m79 -24 c0 -8 9 -23 21 -33 15 -14 18 -26 13 -46 -3 -14 -10 -26 -14 -26 -20
0 -40 13 -40 26 0 8 -9 22 -20 31 -11 10 -20 21 -20 25 0 5 9 8 20 8 11 0 20
7 20 15 0 8 5 15 10 15 6 0 10 -7 10 -15z m294 -261 c9 -8 16 -20 16 -25 0 -6
11 -20 25 -33 14 -13 25 -29 25 -35 0 -6 7 -14 15 -17 8 -3 17 -15 21 -26 3
-12 16 -31 28 -42 13 -12 25 -29 29 -38 3 -10 11 -18 16 -18 5 0 13 -10 16
-22 4 -11 18 -31 31 -43 13 -12 24 -28 24 -34 0 -6 7 -14 15 -17 8 -3 17 -15
21 -26 3 -12 17 -31 30 -43 13 -12 24 -28 24 -34 0 -6 7 -14 15 -17 8 -3 17
-15 21 -26 3 -12 17 -31 30 -43 13 -12 24 -28 24 -34 0 -6 7 -14 15 -17 8 -3
17 -15 21 -26 3 -12 17 -31 30 -43 13 -12 24 -28 24 -34 0 -6 7 -14 15 -17 8
-3 17 -15 21 -26 3 -12 17 -31 30 -43 13 -12 24 -28 24 -34 0 -6 7 -14 15 -17
8 -3 17 -15 21 -26 3 -12 16 -31 28 -42 13 -12 25 -29 29 -39 3 -9 11 -17 16
-17 5 0 13 -10 16 -22 4 -11 17 -31 29 -42 13 -12 25 -29 29 -39 3 -9 11 -17
17 -17 5 0 10 -5 10 -11 0 -11 -25 -39 -35 -39 -9 0 -55 52 -55 62 0 5 -10 19
-23 31 -13 12 -26 30 -30 40 -3 9 -11 17 -16 17 -5 0 -13 10 -16 22 -4 11 -18
31 -31 43 -13 12 -24 28 -24 34 0 6 -7 14 -15 17 -8 3 -17 15 -21 26 -3 12
-17 31 -30 43 -13 12 -24 28 -24 34 0 6 -7 14 -15 17 -8 3 -17 15 -21 26 -3
12 -17 31 -30 43 -13 12 -24 28 -24 34 0 6 -7 14 -15 17 -8 3 -17 15 -21 26
-3 12 -17 31 -30 43 -13 12 -24 28 -24 34 0 6 -7 14 -15 17 -8 3 -17 15 -21
26 -3 12 -17 31 -30 43 -13 12 -24 28 -24 34 0 6 -7 14 -15 17 -8 3 -17 15
-21 26 -3 12 -16 31 -28 42 -13 12 -25 29 -29 39 -3 9 -11 17 -16 17 -5 0 -13
10 -16 22 -4 11 -18 31 -31 43 -13 12 -24 28 -24 34 0 6 -7 14 -15 17 -8 3
-17 15 -21 26 -3 12 -16 31 -29 42 -25 23 -40 60 -30 76 9 15 31 12 49 -6z
m-54 -39 c0 -8 9 -23 20 -32 11 -10 20 -22 20 -27 0 -5 11 -19 24 -31 13 -12
27 -32 31 -43 3 -12 11 -22 16 -22 5 0 13 -8 16 -17 4 -10 16 -27 29 -39 12
-11 25 -31 29 -42 3 -12 11 -22 16 -22 5 0 13 -8 16 -17 4 -10 16 -27 29 -39
12 -11 25 -31 29 -42 3 -12 11 -22 16 -22 5 0 13 -8 16 -17 4 -10 16 -27 29
-39 12 -11 25 -30 28 -42 4 -11 13 -23 21 -26 8 -3 15 -11 15 -17 0 -6 11 -22
24 -34 13 -12 27 -32 31 -43 3 -12 11 -22 16 -22 5 0 13 -8 16 -17 4 -10 16
-27 29 -39 12 -11 25 -31 29 -42 3 -12 11 -22 16 -22 5 0 13 -8 16 -17 4 -10
16 -27 29 -39 12 -11 25 -31 29 -42 3 -12 11 -22 16 -22 5 0 13 -8 16 -17 4
-10 16 -27 29 -39 12 -11 25 -31 29 -42 3 -12 11 -22 16 -22 5 0 13 -8 16 -17
4 -10 17 -28 30 -40 29 -27 30 -59 2 -68 -22 -7 -49 14 -62 48 -3 9 -11 17
-16 17 -5 0 -13 10 -16 22 -4 11 -18 31 -31 43 -13 12 -24 26 -24 31 0 5 -9
17 -20 27 -11 9 -20 24 -20 32 0 8 -5 15 -10 15 -6 0 -14 8 -17 18 -4 9 -16
26 -29 38 -12 11 -25 31 -29 42 -3 12 -11 22 -16 22 -5 0 -13 8 -16 18 -4 9
-16 26 -29 38 -12 11 -25 30 -28 42 -4 11 -13 23 -21 26 -8 3 -15 12 -15 21 0
8 -4 15 -9 15 -5 0 -13 10 -16 22 -4 11 -18 31 -31 43 -13 12 -24 28 -24 34 0
6 -7 14 -15 17 -8 3 -17 15 -21 26 -3 12 -17 31 -30 43 -13 12 -24 26 -24 31
0 5 -9 17 -20 27 -11 9 -20 24 -20 32 0 8 -5 15 -10 15 -6 0 -14 8 -17 18 -4
9 -16 26 -29 38 -12 11 -25 30 -28 42 -4 11 -13 23 -21 26 -8 3 -15 11 -15 17
0 6 -11 22 -24 34 -13 12 -27 31 -30 43 -4 11 -13 23 -21 26 -8 3 -15 12 -15
20 0 8 -5 16 -12 18 -8 3 -5 11 8 25 23 26 34 28 34 8z m0 -115 c0 -6 7 -13
15 -16 8 -3 17 -15 21 -26 3 -12 17 -31 30 -43 13 -12 24 -26 24 -31 0 -5 9
-17 20 -27 11 -9 20 -24 20 -32 0 -8 5 -15 10 -15 6 0 14 -8 17 -17 4 -10 16
-27 29 -39 12 -11 25 -31 29 -42 3 -12 11 -22 16 -22 5 0 13 -8 16 -17 4 -10
16 -27 29 -39 12 -11 25 -30 28 -42 4 -11 13 -23 21 -26 8 -3 15 -12 15 -21 0
-8 4 -15 9 -15 5 0 13 -10 16 -22 4 -11 18 -31 31 -43 13 -12 24 -28 24 -34 0
-6 7 -14 15 -17 8 -3 17 -15 21 -26 3 -12 17 -31 30 -43 13 -12 24 -26 24 -31
0 -5 9 -17 20 -27 11 -9 20 -24 20 -32 0 -8 5 -15 10 -15 6 0 14 -8 17 -17 4
-10 16 -27 29 -39 12 -11 25 -31 29 -42 3 -12 11 -22 16 -22 5 0 13 -8 16 -17
4 -10 17 -28 30 -40 13 -12 23 -27 23 -32 0 -6 10 -19 22 -31 16 -14 19 -23
11 -31 -14 -14 -53 -2 -53 17 0 8 -9 22 -20 31 -11 10 -20 21 -20 26 0 5 -13
22 -30 39 -16 16 -30 34 -30 39 0 6 -11 20 -25 33 -14 13 -25 29 -25 35 0 6
-7 14 -15 17 -8 3 -17 15 -21 26 -3 12 -17 31 -30 43 -13 12 -24 28 -24 34 0
6 -7 14 -15 17 -8 3 -17 15 -21 27 -4 12 -20 32 -35 46 -16 14 -29 30 -29 35
0 5 -11 19 -24 31 -13 12 -27 31 -30 43 -4 11 -13 23 -21 26 -8 3 -15 11 -15
17 0 6 -11 22 -25 35 -14 13 -25 27 -25 33 0 5 -13 22 -28 38 -16 15 -31 36
-35 46 -3 9 -11 17 -16 17 -5 0 -13 10 -16 22 -4 11 -17 31 -29 42 -13 12 -25
29 -29 39 -3 9 -11 17 -16 17 -5 0 -13 10 -17 22 -4 12 -20 33 -35 47 -16 14
-29 30 -29 35 0 5 -11 19 -25 32 -27 25 -32 57 -13 78 10 11 18 8 40 -15 16
-15 28 -32 28 -39z"/>
<path d="M831 2047 c-1 -9 8 -25 19 -34 11 -10 20 -22 20 -27 0 -5 11 -19 24
-31 13 -12 27 -32 31 -43 6 -22 25 -31 25 -12 0 6 -4 10 -10 10 -5 0 -10 7
-10 15 0 9 -7 18 -15 21 -8 3 -17 15 -21 26 -3 12 -16 31 -29 42 -12 12 -25
28 -28 36 -4 12 -6 11 -6 -3z"/>
</g>
</svg>
